<svg width="20" height="19" viewBox="0 0 20 19" fill="none" xmlns="http://www.w3.org/2000/svg">
<path d="M10 18.7662C15.0542 18.7662 19.1667 14.6541 19.1667 9.59953C19.1667 8.7271 19.0449 7.86735 18.8037 7.04397C18.6849 6.63909 18.2622 6.40652 17.8562 6.52532C17.4509 6.64375 17.2191 7.06803 17.3375 7.47291C17.5372 8.15698 17.6389 8.87275 17.6389 9.59953C17.6389 13.8115 14.212 17.2384 10 17.2384C5.78798 17.2384 2.36111 13.8115 2.36111 9.59953C2.36111 5.38751 5.78798 1.96064 10 1.96064C11.5308 1.96064 13.0035 2.40823 14.259 3.25474C14.6085 3.49065 15.0837 3.39797 15.3192 3.04847C15.555 2.6986 15.463 2.22379 15.1132 1.98805C13.6044 0.970717 11.8364 0.432861 10 0.432861C4.94576 0.432861 0.833334 4.54492 0.833334 9.59953C0.833334 14.6541 4.94576 18.7662 10 18.7662Z" fill="#1ED0DF"/>
<path d="M18.5773 1.51018L9.99985 10.0872L7.25571 7.34352C6.93019 7.0182 6.40284 7.0182 6.07732 7.34352C5.752 7.66904 5.752 8.19638 6.07732 8.5219L9.41066 11.8552C9.57362 12.0182 9.78643 12.0994 9.99985 12.0994C10.2133 12.0994 10.4261 12.0182 10.589 11.8552L19.7557 2.68857C20.081 2.36305 20.081 1.8357 19.7557 1.51018C19.4302 1.18487 18.9028 1.18487 18.5773 1.51018Z" fill="#1ED0DF"/>
</svg>
