<svg width="130" height="60" viewBox="0 0 130 60" fill="none" xmlns="http://www.w3.org/2000/svg">
<rect width="130" height="60" rx="5" fill="#F7F7F7"/>
<path fill-rule="evenodd" clip-rule="evenodd" d="M17 18C10.37 18 5 23.37 5 30C5 35.31 8.435 39.795 13.205 41.385C13.805 41.49 14.03 41.13 14.03 40.815C14.03 40.53 14.015 39.585 14.015 38.58C11 39.135 10.22 37.845 9.98 37.17C9.845 36.825 9.26 35.76 8.75 35.475C8.33 35.25 7.73 34.695 8.735 34.68C9.68 34.665 10.355 35.55 10.58 35.91C11.66 37.725 13.385 37.215 14.075 36.9C14.18 36.12 14.495 35.595 14.84 35.295C12.17 34.995 9.38 33.96 9.38 29.37C9.38 28.065 9.845 26.985 10.61 26.145C10.49 25.845 10.07 24.615 10.73 22.965C10.73 22.965 11.735 22.65 14.03 24.195C14.99 23.925 16.01 23.79 17.03 23.79C18.05 23.79 19.07 23.925 20.03 24.195C22.325 22.635 23.33 22.965 23.33 22.965C23.99 24.615 23.57 25.845 23.45 26.145C24.215 26.985 24.68 28.05 24.68 29.37C24.68 33.975 21.875 34.995 19.205 35.295C19.64 35.67 20.015 36.39 20.015 37.515C20.015 39.12 20 40.41 20 40.815C20 41.13 20.225 41.505 20.825 41.385C23.2072 40.5807 25.2772 39.0497 26.7437 37.0074C28.2101 34.965 28.9993 32.5143 29 30C29 23.37 23.63 18 17 18Z" fill="black"/>
<path d="M60.68 33.08C60.3707 32.4293 59.9227 31.928 59.336 31.576C58.7493 31.2133 58.0667 31.032 57.288 31.032C56.5093 31.032 55.8053 31.2133 55.176 31.576C54.5573 31.928 54.0667 32.44 53.704 33.112C53.352 33.7733 53.176 34.5413 53.176 35.416C53.176 36.2907 53.352 37.0587 53.704 37.72C54.0667 38.3813 54.5573 38.8933 55.176 39.256C55.8053 39.608 56.5093 39.784 57.288 39.784C58.376 39.784 59.272 39.4587 59.976 38.808C60.68 38.1573 61.0907 37.2773 61.208 36.168H56.76V34.984H62.76V36.104C62.6747 37.0213 62.3867 37.864 61.896 38.632C61.4053 39.3893 60.76 39.992 59.96 40.44C59.16 40.8773 58.2693 41.096 57.288 41.096C56.2533 41.096 55.3093 40.856 54.456 40.376C53.6027 39.8853 52.9253 39.208 52.424 38.344C51.9333 37.48 51.688 36.504 51.688 35.416C51.688 34.328 51.9333 33.352 52.424 32.488C52.9253 31.6133 53.6027 30.936 54.456 30.456C55.3093 29.9653 56.2533 29.72 57.288 29.72C58.472 29.72 59.5173 30.0133 60.424 30.6C61.3413 31.1867 62.008 32.0133 62.424 33.08H60.68ZM65.4371 30.808C65.1598 30.808 64.9251 30.712 64.7331 30.52C64.5411 30.328 64.4451 30.0933 64.4451 29.816C64.4451 29.5387 64.5411 29.304 64.7331 29.112C64.9251 28.92 65.1598 28.824 65.4371 28.824C65.7038 28.824 65.9278 28.92 66.1091 29.112C66.3011 29.304 66.3971 29.5387 66.3971 29.816C66.3971 30.0933 66.3011 30.328 66.1091 30.52C65.9278 30.712 65.7038 30.808 65.4371 30.808ZM66.1411 32.232V41H64.6851V32.232H66.1411ZM70.3986 33.432V38.6C70.3986 39.0267 70.4893 39.3307 70.6706 39.512C70.852 39.6827 71.1666 39.768 71.6146 39.768H72.6866V41H71.3746C70.564 41 69.956 40.8133 69.5506 40.44C69.1453 40.0667 68.9426 39.4533 68.9426 38.6V33.432H67.8066V32.232H68.9426V30.024H70.3986V32.232H72.6866V33.432H70.3986ZM83.0428 29.848V41H81.5868V35.944H75.9068V41H74.4508V29.848H75.9068V34.744H81.5868V29.848H83.0428ZM93.3049 32.232V41H91.8489V39.704C91.5715 40.152 91.1822 40.504 90.6809 40.76C90.1902 41.0053 89.6462 41.128 89.0489 41.128C88.3662 41.128 87.7529 40.9893 87.2089 40.712C86.6649 40.424 86.2329 39.9973 85.9129 39.432C85.6035 38.8667 85.4489 38.1787 85.4489 37.368V32.232H86.8889V37.176C86.8889 38.04 87.1075 38.7067 87.5449 39.176C87.9822 39.6347 88.5795 39.864 89.3369 39.864C90.1155 39.864 90.7289 39.624 91.1769 39.144C91.6249 38.664 91.8489 37.9653 91.8489 37.048V32.232H93.3049ZM97.2193 33.864C97.5179 33.3413 97.9553 32.9147 98.5312 32.584C99.1073 32.2533 99.7633 32.088 100.499 32.088C101.289 32.088 101.998 32.2747 102.627 32.648C103.257 33.0213 103.753 33.5493 104.115 34.232C104.478 34.904 104.659 35.688 104.659 36.584C104.659 37.4693 104.478 38.2587 104.115 38.952C103.753 39.6453 103.251 40.184 102.611 40.568C101.982 40.952 101.278 41.144 100.499 41.144C99.7419 41.144 99.0753 40.9787 98.4993 40.648C97.9339 40.3173 97.5073 39.896 97.2193 39.384V41H95.7633V29.16H97.2193V33.864ZM103.171 36.584C103.171 35.9227 103.038 35.3467 102.771 34.856C102.505 34.3653 102.142 33.992 101.683 33.736C101.235 33.48 100.739 33.352 100.195 33.352C99.6619 33.352 99.1659 33.4853 98.7073 33.752C98.2593 34.008 97.8966 34.3867 97.6193 34.888C97.3526 35.3787 97.2193 35.9493 97.2193 36.6C97.2193 37.2613 97.3526 37.8427 97.6193 38.344C97.8966 38.8347 98.2593 39.2133 98.7073 39.48C99.1659 39.736 99.6619 39.864 100.195 39.864C100.739 39.864 101.235 39.736 101.683 39.48C102.142 39.2133 102.505 38.8347 102.771 38.344C103.038 37.8427 103.171 37.256 103.171 36.584Z" fill="black"/>
<path d="M45.94 12.03C46.7 12.03 47.3567 12.1733 47.91 12.46C48.47 12.74 48.8967 13.1433 49.19 13.67C49.49 14.1967 49.64 14.8167 49.64 15.53C49.64 16.2433 49.49 16.8633 49.19 17.39C48.8967 17.91 48.47 18.31 47.91 18.59C47.3567 18.8633 46.7 19 45.94 19H43.77V12.03H45.94ZM45.94 18.25C46.84 18.25 47.5267 18.0133 48 17.54C48.4733 17.06 48.71 16.39 48.71 15.53C48.71 14.6633 48.47 13.9867 47.99 13.5C47.5167 13.0133 46.8333 12.77 45.94 12.77H44.68V18.25H45.94ZM51.3103 12.63C51.137 12.63 50.9903 12.57 50.8703 12.45C50.7503 12.33 50.6903 12.1833 50.6903 12.01C50.6903 11.8367 50.7503 11.69 50.8703 11.57C50.9903 11.45 51.137 11.39 51.3103 11.39C51.477 11.39 51.617 11.45 51.7303 11.57C51.8503 11.69 51.9103 11.8367 51.9103 12.01C51.9103 12.1833 51.8503 12.33 51.7303 12.45C51.617 12.57 51.477 12.63 51.3103 12.63ZM51.7503 13.52V19H50.8403V13.52H51.7503ZM55.2413 19.09C54.8213 19.09 54.4446 19.02 54.1113 18.88C53.7779 18.7333 53.5146 18.5333 53.3213 18.28C53.1279 18.02 53.0213 17.7233 53.0013 17.39H53.9413C53.9679 17.6633 54.0946 17.8867 54.3213 18.06C54.5546 18.2333 54.8579 18.32 55.2313 18.32C55.5779 18.32 55.8513 18.2433 56.0513 18.09C56.2513 17.9367 56.3513 17.7433 56.3513 17.51C56.3513 17.27 56.2446 17.0933 56.0313 16.98C55.8179 16.86 55.4879 16.7433 55.0413 16.63C54.6346 16.5233 54.3013 16.4167 54.0413 16.31C53.7879 16.1967 53.5679 16.0333 53.3813 15.82C53.2013 15.6 53.1113 15.3133 53.1113 14.96C53.1113 14.68 53.1946 14.4233 53.3613 14.19C53.5279 13.9567 53.7646 13.7733 54.0713 13.64C54.3779 13.5 54.7279 13.43 55.1213 13.43C55.7279 13.43 56.2179 13.5833 56.5913 13.89C56.9646 14.1967 57.1646 14.6167 57.1913 15.15H56.2813C56.2613 14.8633 56.1446 14.6333 55.9313 14.46C55.7246 14.2867 55.4446 14.2 55.0913 14.2C54.7646 14.2 54.5046 14.27 54.3113 14.41C54.1179 14.55 54.0213 14.7333 54.0213 14.96C54.0213 15.14 54.0779 15.29 54.1913 15.41C54.3113 15.5233 54.4579 15.6167 54.6313 15.69C54.8113 15.7567 55.0579 15.8333 55.3713 15.92C55.7646 16.0267 56.0846 16.1333 56.3313 16.24C56.5779 16.34 56.7879 16.4933 56.9613 16.7C57.1413 16.9067 57.2346 17.1767 57.2413 17.51C57.2413 17.81 57.1579 18.08 56.9913 18.32C56.8246 18.56 56.5879 18.75 56.2813 18.89C55.9813 19.0233 55.6346 19.09 55.2413 19.09ZM59.4359 14.53C59.6159 14.2167 59.8825 13.9567 60.2359 13.75C60.5959 13.5367 61.0125 13.43 61.4859 13.43C61.9725 13.43 62.4125 13.5467 62.8059 13.78C63.2059 14.0133 63.5192 14.3433 63.7459 14.77C63.9725 15.19 64.0859 15.68 64.0859 16.24C64.0859 16.7933 63.9725 17.2867 63.7459 17.72C63.5192 18.1533 63.2059 18.49 62.8059 18.73C62.4125 18.97 61.9725 19.09 61.4859 19.09C61.0192 19.09 60.6059 18.9867 60.2459 18.78C59.8925 18.5667 59.6225 18.3033 59.4359 17.99V21.6H58.5259V13.52H59.4359V14.53ZM63.1559 16.24C63.1559 15.8267 63.0725 15.4667 62.9059 15.16C62.7392 14.8533 62.5125 14.62 62.2259 14.46C61.9459 14.3 61.6359 14.22 61.2959 14.22C60.9625 14.22 60.6525 14.3033 60.3659 14.47C60.0859 14.63 59.8592 14.8667 59.6859 15.18C59.5192 15.4867 59.4359 15.8433 59.4359 16.25C59.4359 16.6633 59.5192 17.0267 59.6859 17.34C59.8592 17.6467 60.0859 17.8833 60.3659 18.05C60.6525 18.21 60.9625 18.29 61.2959 18.29C61.6359 18.29 61.9459 18.21 62.2259 18.05C62.5125 17.8833 62.7392 17.6467 62.9059 17.34C63.0725 17.0267 63.1559 16.66 63.1559 16.24ZM67.6737 19.09C67.1603 19.09 66.6937 18.9733 66.2737 18.74C65.8603 18.5067 65.5337 18.1767 65.2937 17.75C65.0603 17.3167 64.9437 16.8167 64.9437 16.25C64.9437 15.69 65.0637 15.1967 65.3037 14.77C65.5503 14.3367 65.8837 14.0067 66.3037 13.78C66.7237 13.5467 67.1937 13.43 67.7137 13.43C68.2337 13.43 68.7037 13.5467 69.1237 13.78C69.5437 14.0067 69.8737 14.3333 70.1137 14.76C70.3603 15.1867 70.4837 15.6833 70.4837 16.25C70.4837 16.8167 70.357 17.3167 70.1037 17.75C69.857 18.1767 69.5203 18.5067 69.0937 18.74C68.667 18.9733 68.1937 19.09 67.6737 19.09ZM67.6737 18.29C68.0003 18.29 68.307 18.2133 68.5937 18.06C68.8803 17.9067 69.1103 17.6767 69.2837 17.37C69.4637 17.0633 69.5537 16.69 69.5537 16.25C69.5537 15.81 69.467 15.4367 69.2937 15.13C69.1203 14.8233 68.8937 14.5967 68.6137 14.45C68.3337 14.2967 68.0303 14.22 67.7037 14.22C67.3703 14.22 67.0637 14.2967 66.7837 14.45C66.5103 14.5967 66.2903 14.8233 66.1237 15.13C65.957 15.4367 65.8737 15.81 65.8737 16.25C65.8737 16.6967 65.9537 17.0733 66.1137 17.38C66.2803 17.6867 66.5003 17.9167 66.7737 18.07C67.047 18.2167 67.347 18.29 67.6737 18.29ZM74.3502 13.42C75.0168 13.42 75.5568 13.6233 75.9702 14.03C76.3835 14.43 76.5902 15.01 76.5902 15.77V19H75.6902V15.9C75.6902 15.3533 75.5535 14.9367 75.2802 14.65C75.0068 14.3567 74.6335 14.21 74.1602 14.21C73.6802 14.21 73.2968 14.36 73.0102 14.66C72.7302 14.96 72.5902 15.3967 72.5902 15.97V19H71.6802V13.52H72.5902V14.3C72.7702 14.02 73.0135 13.8033 73.3202 13.65C73.6335 13.4967 73.9768 13.42 74.3502 13.42ZM78.9866 13.52V19H78.0766V13.52H78.9866ZM79.5066 11.97L77.3766 13.11V12.43L79.5066 11.18V11.97ZM82.5776 18.16L84.2776 13.52H85.2476L83.0976 19H82.0376L79.8876 13.52H80.8676L82.5776 18.16ZM91.143 16.05C91.143 16.2233 91.133 16.4067 91.113 16.6H86.733C86.7664 17.14 86.9497 17.5633 87.283 17.87C87.623 18.17 88.033 18.32 88.513 18.32C88.9064 18.32 89.233 18.23 89.493 18.05C89.7597 17.8633 89.9464 17.6167 90.053 17.31H91.033C90.8864 17.8367 90.593 18.2667 90.153 18.6C89.713 18.9267 89.1664 19.09 88.513 19.09C87.993 19.09 87.5264 18.9733 87.113 18.74C86.7064 18.5067 86.3864 18.1767 86.153 17.75C85.9197 17.3167 85.803 16.8167 85.803 16.25C85.803 15.6833 85.9164 15.1867 86.143 14.76C86.3697 14.3333 86.6864 14.0067 87.093 13.78C87.5064 13.5467 87.9797 13.43 88.513 13.43C89.033 13.43 89.493 13.5433 89.893 13.77C90.293 13.9967 90.5997 14.31 90.813 14.71C91.033 15.1033 91.143 15.55 91.143 16.05ZM90.203 15.86C90.203 15.5133 90.1264 15.2167 89.973 14.97C89.8197 14.7167 89.6097 14.5267 89.343 14.4C89.083 14.2667 88.793 14.2 88.473 14.2C88.013 14.2 87.6197 14.3467 87.293 14.64C86.973 14.9333 86.7897 15.34 86.743 15.86H90.203ZM93.2542 11.6V19H92.3442V11.6H93.2542ZM100.141 13.42C100.808 13.42 101.348 13.6233 101.761 14.03C102.175 14.43 102.381 15.01 102.381 15.77V19H101.481V15.9C101.481 15.3533 101.345 14.9367 101.071 14.65C100.798 14.3567 100.425 14.21 99.9512 14.21C99.4712 14.21 99.0878 14.36 98.8012 14.66C98.5212 14.96 98.3812 15.3967 98.3812 15.97V19H97.4712V13.52H98.3812V14.3C98.5612 14.02 98.8045 13.8033 99.1112 13.65C99.4245 13.4967 99.7678 13.42 100.141 13.42ZM106.258 19.09C105.744 19.09 105.278 18.9733 104.858 18.74C104.444 18.5067 104.118 18.1767 103.878 17.75C103.644 17.3167 103.528 16.8167 103.528 16.25C103.528 15.69 103.648 15.1967 103.888 14.77C104.134 14.3367 104.468 14.0067 104.888 13.78C105.308 13.5467 105.778 13.43 106.298 13.43C106.818 13.43 107.288 13.5467 107.708 13.78C108.128 14.0067 108.458 14.3333 108.698 14.76C108.944 15.1867 109.068 15.6833 109.068 16.25C109.068 16.8167 108.941 17.3167 108.688 17.75C108.441 18.1767 108.104 18.5067 107.678 18.74C107.251 18.9733 106.778 19.09 106.258 19.09ZM106.258 18.29C106.584 18.29 106.891 18.2133 107.178 18.06C107.464 17.9067 107.694 17.6767 107.868 17.37C108.048 17.0633 108.138 16.69 108.138 16.25C108.138 15.81 108.051 15.4367 107.878 15.13C107.704 14.8233 107.478 14.5967 107.198 14.45C106.918 14.2967 106.614 14.22 106.288 14.22C105.954 14.22 105.648 14.2967 105.368 14.45C105.094 14.5967 104.874 14.8233 104.708 15.13C104.541 15.4367 104.458 15.81 104.458 16.25C104.458 16.6967 104.538 17.0733 104.698 17.38C104.864 17.6867 105.084 17.9167 105.358 18.07C105.631 18.2167 105.931 18.29 106.258 18.29Z" fill="black"/>
</svg>
