<svg width="50" height="50" viewBox="0 0 50 50" fill="none" xmlns="http://www.w3.org/2000/svg">
<path d="M25 46.875C19.1984 46.875 13.6344 44.5703 9.53204 40.468C5.42968 36.3656 3.125 30.8016 3.125 25C3.125 19.1984 5.42968 13.6344 9.53204 9.53204C13.6344 5.42968 19.1984 3.125 25 3.125C30.8016 3.125 36.3656 5.42968 40.468 9.53204C44.5703 13.6344 46.875 19.1984 46.875 25C46.875 30.8016 44.5703 36.3656 40.468 40.468C36.3656 44.5703 30.8016 46.875 25 46.875ZM25 50C31.6304 50 37.9893 47.3661 42.6777 42.6777C47.3661 37.9893 50 31.6304 50 25C50 18.3696 47.3661 12.0107 42.6777 7.32233C37.9893 2.63392 31.6304 0 25 0C18.3696 0 12.0107 2.63392 7.32233 7.32233C2.63392 12.0107 0 18.3696 0 25C0 31.6304 2.63392 37.9893 7.32233 42.6777C12.0107 47.3661 18.3696 50 25 50Z" fill="#487C99"/>
<path d="M25 40.625C20.856 40.625 16.8817 38.9788 13.9515 36.0485C11.0212 33.1183 9.375 29.144 9.375 25C9.375 20.856 11.0212 16.8817 13.9515 13.9515C16.8817 11.0212 20.856 9.375 25 9.375C29.144 9.375 33.1183 11.0212 36.0485 13.9515C38.9788 16.8817 40.625 20.856 40.625 25C40.625 29.144 38.9788 33.1183 36.0485 36.0485C33.1183 38.9788 29.144 40.625 25 40.625ZM25 43.75C27.4623 43.75 29.9005 43.265 32.1753 42.3227C34.4502 41.3805 36.5172 39.9994 38.2583 38.2583C39.9994 36.5172 41.3805 34.4502 42.3227 32.1753C43.265 29.9005 43.75 27.4623 43.75 25C43.75 22.5377 43.265 20.0995 42.3227 17.8247C41.3805 15.5498 39.9994 13.4828 38.2583 11.7417C36.5172 10.0006 34.4502 8.61953 32.1753 7.67726C29.9005 6.73498 27.4623 6.25 25 6.25C20.0272 6.25 15.2581 8.22544 11.7417 11.7417C8.22544 15.2581 6.25 20.0272 6.25 25C6.25 29.9728 8.22544 34.7419 11.7417 38.2583C15.2581 41.7746 20.0272 43.75 25 43.75Z" fill="#487C99"/>
<path d="M25 34.375C22.5136 34.375 20.129 33.3873 18.3709 31.6291C16.6127 29.871 15.625 27.4864 15.625 25C15.625 22.5136 16.6127 20.129 18.3709 18.3709C20.129 16.6127 22.5136 15.625 25 15.625C27.4864 15.625 29.871 16.6127 31.6291 18.3709C33.3873 20.129 34.375 22.5136 34.375 25C34.375 27.4864 33.3873 29.871 31.6291 31.6291C29.871 33.3873 27.4864 34.375 25 34.375ZM25 37.5C28.3152 37.5 31.4946 36.183 33.8388 33.8388C36.183 31.4946 37.5 28.3152 37.5 25C37.5 21.6848 36.183 18.5054 33.8388 16.1612C31.4946 13.817 28.3152 12.5 25 12.5C21.6848 12.5 18.5054 13.817 16.1612 16.1612C13.817 18.5054 12.5 21.6848 12.5 25C12.5 28.3152 13.817 31.4946 16.1612 33.8388C18.5054 36.183 21.6848 37.5 25 37.5Z" fill="#487C99"/>
<path d="M29.6875 25C29.6875 26.2432 29.1936 27.4355 28.3146 28.3146C27.4355 29.1936 26.2432 29.6875 25 29.6875C23.7568 29.6875 22.5645 29.1936 21.6854 28.3146C20.8064 27.4355 20.3125 26.2432 20.3125 25C20.3125 23.7568 20.8064 22.5645 21.6854 21.6854C22.5645 20.8064 23.7568 20.3125 25 20.3125C26.2432 20.3125 27.4355 20.8064 28.3146 21.6854C29.1936 22.5645 29.6875 23.7568 29.6875 25Z" fill="#487C99"/>
</svg>
