<svg width="130" height="60" viewBox="0 0 130 60" fill="none" xmlns="http://www.w3.org/2000/svg">
<rect width="130" height="60" rx="5" fill="#F7F7F7"/>
<path d="M19.2484 28.9828L8.9031 18.6094L22.0656 26.1656L19.2484 28.9828ZM6.2031 18C5.59373 18.3188 5.18591 18.9 5.18591 19.6547V40.3406C5.18591 41.0953 5.59373 41.6766 6.2031 41.9953L18.2312 29.9953L6.2031 18ZM26.1344 28.575L23.3734 26.9766L20.2937 30L23.3734 33.0234L26.1906 31.425C27.0344 30.7547 27.0344 29.2453 26.1344 28.575ZM8.9031 41.3906L22.0656 33.8344L19.2484 31.0172L8.9031 41.3906Z" fill="black"/>
<path d="M48.688 33.112C48.688 34.04 48.368 34.8133 47.728 35.432C47.0987 36.04 46.1333 36.344 44.832 36.344H42.688V41H41.232V29.848H44.832C46.0907 29.848 47.0453 30.152 47.696 30.76C48.3573 31.368 48.688 32.152 48.688 33.112ZM44.832 35.144C45.6427 35.144 46.24 34.968 46.624 34.616C47.008 34.264 47.2 33.7627 47.2 33.112C47.2 31.736 46.4107 31.048 44.832 31.048H42.688V35.144H44.832ZM51.9536 29.16V41H50.4976V29.16H51.9536ZM53.8911 36.584C53.8911 35.688 54.0725 34.904 54.4351 34.232C54.7978 33.5493 55.2938 33.0213 55.9231 32.648C56.5631 32.2747 57.2725 32.088 58.0511 32.088C58.8191 32.088 59.4858 32.2533 60.0511 32.584C60.6165 32.9147 61.0378 33.3307 61.3151 33.832V32.232H62.7871V41H61.3151V39.368C61.0271 39.88 60.5951 40.3067 60.0191 40.648C59.4538 40.9787 58.7925 41.144 58.0351 41.144C57.2565 41.144 56.5525 40.952 55.9231 40.568C55.2938 40.184 54.7978 39.6453 54.4351 38.952C54.0725 38.2587 53.8911 37.4693 53.8911 36.584ZM61.3151 36.6C61.3151 35.9387 61.1818 35.3627 60.9151 34.872C60.6485 34.3813 60.2858 34.008 59.8271 33.752C59.3791 33.4853 58.8831 33.352 58.3391 33.352C57.7951 33.352 57.2991 33.48 56.8511 33.736C56.4031 33.992 56.0458 34.3653 55.7791 34.856C55.5125 35.3467 55.3791 35.9227 55.3791 36.584C55.3791 37.256 55.5125 37.8427 55.7791 38.344C56.0458 38.8347 56.4031 39.2133 56.8511 39.48C57.2991 39.736 57.7951 39.864 58.3391 39.864C58.8831 39.864 59.3791 39.736 59.8271 39.48C60.2858 39.2133 60.6485 38.8347 60.9151 38.344C61.1818 37.8427 61.3151 37.2613 61.3151 36.6ZM72.7996 32.232L67.5196 45.128H66.0156L67.7436 40.904L64.2076 32.232H65.8236L68.5756 39.336L71.2956 32.232H72.7996ZM77.7993 41.112C77.0633 41.112 76.4019 40.984 75.8153 40.728C75.2393 40.4613 74.7859 40.0987 74.4553 39.64C74.1246 39.1707 73.9539 38.632 73.9433 38.024H75.4953C75.5486 38.5467 75.7619 38.9893 76.1353 39.352C76.5193 39.704 77.0739 39.88 77.7993 39.88C78.4926 39.88 79.0366 39.7093 79.4313 39.368C79.8366 39.016 80.0393 38.568 80.0393 38.024C80.0393 37.5973 79.9219 37.2507 79.6873 36.984C79.4526 36.7173 79.1593 36.5147 78.8073 36.376C78.4553 36.2373 77.9806 36.088 77.3833 35.928C76.6473 35.736 76.0553 35.544 75.6073 35.352C75.1699 35.16 74.7913 34.8613 74.4713 34.456C74.1619 34.04 74.0073 33.4853 74.0073 32.792C74.0073 32.184 74.1619 31.6453 74.4713 31.176C74.7806 30.7067 75.2126 30.344 75.7673 30.088C76.3326 29.832 76.9779 29.704 77.7033 29.704C78.7486 29.704 79.6019 29.9653 80.2633 30.488C80.9353 31.0107 81.3139 31.704 81.3993 32.568H79.7993C79.7459 32.1413 79.5219 31.768 79.1273 31.448C78.7326 31.1173 78.2099 30.952 77.5593 30.952C76.9513 30.952 76.4553 31.112 76.0713 31.432C75.6873 31.7413 75.4953 32.1787 75.4953 32.744C75.4953 33.1493 75.6073 33.48 75.8313 33.736C76.0659 33.992 76.3486 34.1893 76.6793 34.328C77.0206 34.456 77.4953 34.6053 78.1033 34.776C78.8393 34.9787 79.4313 35.1813 79.8793 35.384C80.3273 35.576 80.7113 35.88 81.0312 36.296C81.3513 36.7013 81.5113 37.256 81.5113 37.96C81.5113 38.504 81.3673 39.016 81.0793 39.496C80.7913 39.976 80.3646 40.3653 79.7993 40.664C79.2339 40.9627 78.5673 41.112 77.7993 41.112ZM85.4299 33.432V38.6C85.4299 39.0267 85.5205 39.3307 85.7019 39.512C85.8832 39.6827 86.1979 39.768 86.6459 39.768H87.7179V41H86.4059C85.5952 41 84.9872 40.8133 84.5819 40.44C84.1765 40.0667 83.9739 39.4533 83.9739 38.6V33.432H82.8379V32.232H83.9739V30.024H85.4299V32.232H87.7179V33.432H85.4299ZM93.306 41.144C92.4847 41.144 91.738 40.9573 91.066 40.584C90.4047 40.2107 89.882 39.6827 89.498 39C89.1247 38.3067 88.938 37.5067 88.938 36.6C88.938 35.704 89.13 34.9147 89.514 34.232C89.9087 33.5387 90.442 33.0107 91.114 32.648C91.786 32.2747 92.538 32.088 93.37 32.088C94.202 32.088 94.954 32.2747 95.626 32.648C96.298 33.0107 96.826 33.5333 97.21 34.216C97.6047 34.8987 97.802 35.6933 97.802 36.6C97.802 37.5067 97.5993 38.3067 97.194 39C96.7993 39.6827 96.2607 40.2107 95.578 40.584C94.8953 40.9573 94.138 41.144 93.306 41.144ZM93.306 39.864C93.8287 39.864 94.3193 39.7413 94.778 39.496C95.2367 39.2507 95.6047 38.8827 95.882 38.392C96.17 37.9013 96.314 37.304 96.314 36.6C96.314 35.896 96.1753 35.2987 95.898 34.808C95.6207 34.3173 95.258 33.9547 94.81 33.72C94.362 33.4747 93.8767 33.352 93.354 33.352C92.8207 33.352 92.33 33.4747 91.882 33.72C91.4447 33.9547 91.0927 34.3173 90.826 34.808C90.5593 35.2987 90.426 35.896 90.426 36.6C90.426 37.3147 90.554 37.9173 90.81 38.408C91.0767 38.8987 91.4287 39.2667 91.866 39.512C92.3033 39.7467 92.7833 39.864 93.306 39.864ZM101.172 33.656C101.428 33.1547 101.791 32.7653 102.26 32.488C102.74 32.2107 103.322 32.072 104.004 32.072V33.576H103.62C101.988 33.576 101.172 34.4613 101.172 36.232V41H99.7164V32.232H101.172V33.656ZM113.685 36.28C113.685 36.5573 113.669 36.8507 113.637 37.16H106.629C106.682 38.024 106.976 38.7013 107.509 39.192C108.053 39.672 108.709 39.912 109.477 39.912C110.106 39.912 110.629 39.768 111.045 39.48C111.472 39.1813 111.77 38.7867 111.941 38.296H113.509C113.274 39.1387 112.805 39.8267 112.101 40.36C111.397 40.8827 110.522 41.144 109.477 41.144C108.645 41.144 107.898 40.9573 107.237 40.584C106.586 40.2107 106.074 39.6827 105.701 39C105.328 38.3067 105.141 37.5067 105.141 36.6C105.141 35.6933 105.322 34.8987 105.685 34.216C106.048 33.5333 106.554 33.0107 107.205 32.648C107.866 32.2747 108.624 32.088 109.477 32.088C110.309 32.088 111.045 32.2693 111.685 32.632C112.325 32.9947 112.816 33.496 113.157 34.136C113.509 34.7653 113.685 35.48 113.685 36.28ZM112.181 35.976C112.181 35.4213 112.058 34.9467 111.813 34.552C111.568 34.1467 111.232 33.8427 110.805 33.64C110.389 33.4267 109.925 33.32 109.413 33.32C108.677 33.32 108.048 33.5547 107.525 34.024C107.013 34.4933 106.72 35.144 106.645 35.976H112.181Z" fill="black"/>
<path d="M44.94 12.03C45.7 12.03 46.3567 12.1733 46.91 12.46C47.47 12.74 47.8967 13.1433 48.19 13.67C48.49 14.1967 48.64 14.8167 48.64 15.53C48.64 16.2433 48.49 16.8633 48.19 17.39C47.8967 17.91 47.47 18.31 46.91 18.59C46.3567 18.8633 45.7 19 44.94 19H42.77V12.03H44.94ZM44.94 18.25C45.84 18.25 46.5267 18.0133 47 17.54C47.4733 17.06 47.71 16.39 47.71 15.53C47.71 14.6633 47.47 13.9867 46.99 13.5C46.5167 13.0133 45.8333 12.77 44.94 12.77H43.68V18.25H44.94ZM50.3103 12.63C50.137 12.63 49.9903 12.57 49.8703 12.45C49.7503 12.33 49.6903 12.1833 49.6903 12.01C49.6903 11.8367 49.7503 11.69 49.8703 11.57C49.9903 11.45 50.137 11.39 50.3103 11.39C50.477 11.39 50.617 11.45 50.7303 11.57C50.8503 11.69 50.9103 11.8367 50.9103 12.01C50.9103 12.1833 50.8503 12.33 50.7303 12.45C50.617 12.57 50.477 12.63 50.3103 12.63ZM50.7503 13.52V19H49.8403V13.52H50.7503ZM54.2413 19.09C53.8213 19.09 53.4446 19.02 53.1113 18.88C52.7779 18.7333 52.5146 18.5333 52.3213 18.28C52.1279 18.02 52.0213 17.7233 52.0013 17.39H52.9413C52.9679 17.6633 53.0946 17.8867 53.3213 18.06C53.5546 18.2333 53.8579 18.32 54.2313 18.32C54.5779 18.32 54.8513 18.2433 55.0513 18.09C55.2513 17.9367 55.3513 17.7433 55.3513 17.51C55.3513 17.27 55.2446 17.0933 55.0313 16.98C54.8179 16.86 54.4879 16.7433 54.0413 16.63C53.6346 16.5233 53.3013 16.4167 53.0413 16.31C52.7879 16.1967 52.5679 16.0333 52.3813 15.82C52.2013 15.6 52.1113 15.3133 52.1113 14.96C52.1113 14.68 52.1946 14.4233 52.3613 14.19C52.5279 13.9567 52.7646 13.7733 53.0713 13.64C53.3779 13.5 53.7279 13.43 54.1213 13.43C54.7279 13.43 55.2179 13.5833 55.5913 13.89C55.9646 14.1967 56.1646 14.6167 56.1913 15.15H55.2813C55.2613 14.8633 55.1446 14.6333 54.9313 14.46C54.7246 14.2867 54.4446 14.2 54.0913 14.2C53.7646 14.2 53.5046 14.27 53.3113 14.41C53.1179 14.55 53.0213 14.7333 53.0213 14.96C53.0213 15.14 53.0779 15.29 53.1913 15.41C53.3113 15.5233 53.4579 15.6167 53.6313 15.69C53.8113 15.7567 54.0579 15.8333 54.3713 15.92C54.7646 16.0267 55.0846 16.1333 55.3313 16.24C55.5779 16.34 55.7879 16.4933 55.9613 16.7C56.1413 16.9067 56.2346 17.1767 56.2413 17.51C56.2413 17.81 56.1579 18.08 55.9913 18.32C55.8246 18.56 55.5879 18.75 55.2813 18.89C54.9813 19.0233 54.6346 19.09 54.2413 19.09ZM58.4359 14.53C58.6159 14.2167 58.8825 13.9567 59.2359 13.75C59.5959 13.5367 60.0125 13.43 60.4859 13.43C60.9725 13.43 61.4125 13.5467 61.8059 13.78C62.2059 14.0133 62.5192 14.3433 62.7459 14.77C62.9725 15.19 63.0859 15.68 63.0859 16.24C63.0859 16.7933 62.9725 17.2867 62.7459 17.72C62.5192 18.1533 62.2059 18.49 61.8059 18.73C61.4125 18.97 60.9725 19.09 60.4859 19.09C60.0192 19.09 59.6059 18.9867 59.2459 18.78C58.8925 18.5667 58.6225 18.3033 58.4359 17.99V21.6H57.5259V13.52H58.4359V14.53ZM62.1559 16.24C62.1559 15.8267 62.0725 15.4667 61.9059 15.16C61.7392 14.8533 61.5125 14.62 61.2259 14.46C60.9459 14.3 60.6359 14.22 60.2959 14.22C59.9625 14.22 59.6525 14.3033 59.3659 14.47C59.0859 14.63 58.8592 14.8667 58.6859 15.18C58.5192 15.4867 58.4359 15.8433 58.4359 16.25C58.4359 16.6633 58.5192 17.0267 58.6859 17.34C58.8592 17.6467 59.0859 17.8833 59.3659 18.05C59.6525 18.21 59.9625 18.29 60.2959 18.29C60.6359 18.29 60.9459 18.21 61.2259 18.05C61.5125 17.8833 61.7392 17.6467 61.9059 17.34C62.0725 17.0267 62.1559 16.66 62.1559 16.24ZM66.6737 19.09C66.1603 19.09 65.6937 18.9733 65.2737 18.74C64.8603 18.5067 64.5337 18.1767 64.2937 17.75C64.0603 17.3167 63.9437 16.8167 63.9437 16.25C63.9437 15.69 64.0637 15.1967 64.3037 14.77C64.5503 14.3367 64.8837 14.0067 65.3037 13.78C65.7237 13.5467 66.1937 13.43 66.7137 13.43C67.2337 13.43 67.7037 13.5467 68.1237 13.78C68.5437 14.0067 68.8737 14.3333 69.1137 14.76C69.3603 15.1867 69.4837 15.6833 69.4837 16.25C69.4837 16.8167 69.357 17.3167 69.1037 17.75C68.857 18.1767 68.5203 18.5067 68.0937 18.74C67.667 18.9733 67.1937 19.09 66.6737 19.09ZM66.6737 18.29C67.0003 18.29 67.307 18.2133 67.5937 18.06C67.8803 17.9067 68.1103 17.6767 68.2837 17.37C68.4637 17.0633 68.5537 16.69 68.5537 16.25C68.5537 15.81 68.467 15.4367 68.2937 15.13C68.1203 14.8233 67.8937 14.5967 67.6137 14.45C67.3337 14.2967 67.0303 14.22 66.7037 14.22C66.3703 14.22 66.0637 14.2967 65.7837 14.45C65.5103 14.5967 65.2903 14.8233 65.1237 15.13C64.957 15.4367 64.8737 15.81 64.8737 16.25C64.8737 16.6967 64.9537 17.0733 65.1137 17.38C65.2803 17.6867 65.5003 17.9167 65.7737 18.07C66.047 18.2167 66.347 18.29 66.6737 18.29ZM73.3502 13.42C74.0168 13.42 74.5568 13.6233 74.9702 14.03C75.3835 14.43 75.5902 15.01 75.5902 15.77V19H74.6902V15.9C74.6902 15.3533 74.5535 14.9367 74.2802 14.65C74.0068 14.3567 73.6335 14.21 73.1602 14.21C72.6802 14.21 72.2968 14.36 72.0102 14.66C71.7302 14.96 71.5902 15.3967 71.5902 15.97V19H70.6802V13.52H71.5902V14.3C71.7702 14.02 72.0135 13.8033 72.3202 13.65C72.6335 13.4967 72.9768 13.42 73.3502 13.42ZM77.9866 13.52V19H77.0766V13.52H77.9866ZM78.5066 11.97L76.3766 13.11V12.43L78.5066 11.18V11.97ZM81.5776 18.16L83.2776 13.52H84.2476L82.0976 19H81.0376L78.8876 13.52H79.8676L81.5776 18.16ZM90.143 16.05C90.143 16.2233 90.133 16.4067 90.113 16.6H85.733C85.7664 17.14 85.9497 17.5633 86.283 17.87C86.623 18.17 87.033 18.32 87.513 18.32C87.9064 18.32 88.233 18.23 88.493 18.05C88.7597 17.8633 88.9464 17.6167 89.053 17.31H90.033C89.8864 17.8367 89.593 18.2667 89.153 18.6C88.713 18.9267 88.1664 19.09 87.513 19.09C86.993 19.09 86.5264 18.9733 86.113 18.74C85.7064 18.5067 85.3864 18.1767 85.153 17.75C84.9197 17.3167 84.803 16.8167 84.803 16.25C84.803 15.6833 84.9164 15.1867 85.143 14.76C85.3697 14.3333 85.6864 14.0067 86.093 13.78C86.5064 13.5467 86.9797 13.43 87.513 13.43C88.033 13.43 88.493 13.5433 88.893 13.77C89.293 13.9967 89.5997 14.31 89.813 14.71C90.033 15.1033 90.143 15.55 90.143 16.05ZM89.203 15.86C89.203 15.5133 89.1264 15.2167 88.973 14.97C88.8197 14.7167 88.6097 14.5267 88.343 14.4C88.083 14.2667 87.793 14.2 87.473 14.2C87.013 14.2 86.6197 14.3467 86.293 14.64C85.973 14.9333 85.7897 15.34 85.743 15.86H89.203ZM92.2542 11.6V19H91.3442V11.6H92.2542ZM99.1412 13.42C99.8078 13.42 100.348 13.6233 100.761 14.03C101.175 14.43 101.381 15.01 101.381 15.77V19H100.481V15.9C100.481 15.3533 100.345 14.9367 100.071 14.65C99.7978 14.3567 99.4245 14.21 98.9512 14.21C98.4712 14.21 98.0878 14.36 97.8012 14.66C97.5212 14.96 97.3812 15.3967 97.3812 15.97V19H96.4712V13.52H97.3812V14.3C97.5612 14.02 97.8045 13.8033 98.1112 13.65C98.4245 13.4967 98.7678 13.42 99.1412 13.42ZM102.528 16.24C102.528 15.68 102.641 15.19 102.868 14.77C103.094 14.3433 103.404 14.0133 103.798 13.78C104.198 13.5467 104.641 13.43 105.128 13.43C105.608 13.43 106.024 13.5333 106.378 13.74C106.731 13.9467 106.994 14.2067 107.168 14.52V13.52H108.088V19H107.168V17.98C106.988 18.3 106.718 18.5667 106.358 18.78C106.004 18.9867 105.591 19.09 105.118 19.09C104.631 19.09 104.191 18.97 103.798 18.73C103.404 18.49 103.094 18.1533 102.868 17.72C102.641 17.2867 102.528 16.7933 102.528 16.24ZM107.168 16.25C107.168 15.8367 107.084 15.4767 106.918 15.17C106.751 14.8633 106.524 14.63 106.238 14.47C105.958 14.3033 105.648 14.22 105.308 14.22C104.968 14.22 104.658 14.3 104.378 14.46C104.098 14.62 103.874 14.8533 103.708 15.16C103.541 15.4667 103.458 15.8267 103.458 16.24C103.458 16.66 103.541 17.0267 103.708 17.34C103.874 17.6467 104.098 17.8833 104.378 18.05C104.658 18.21 104.968 18.29 105.308 18.29C105.648 18.29 105.958 18.21 106.238 18.05C106.524 17.8833 106.751 17.6467 106.918 17.34C107.084 17.0267 107.168 16.6633 107.168 16.25Z" fill="black"/>
</svg>
