<svg width="563" height="60" viewBox="0 0 563 60" fill="none" xmlns="http://www.w3.org/2000/svg">
<path d="M14.75 41.3333V18" stroke="black" stroke-width="2" stroke-linecap="round" stroke-linejoin="round"/>
<path d="M6 31.125L14.75 41.3333L23.5 31.125" stroke="black" stroke-width="2" stroke-linecap="round" stroke-linejoin="round"/>
<path d="M53.448 25.848L49.24 37H47.56L43.352 25.848H44.904L48.408 35.464L51.912 25.848H53.448ZM63.0445 32.28C63.0445 32.5573 63.0285 32.8507 62.9965 33.16H55.9885C56.0418 34.024 56.3352 34.7013 56.8685 35.192C57.4125 35.672 58.0685 35.912 58.8365 35.912C59.4658 35.912 59.9885 35.768 60.4045 35.48C60.8312 35.1813 61.1298 34.7867 61.3005 34.296H62.8685C62.6338 35.1387 62.1645 35.8267 61.4605 36.36C60.7565 36.8827 59.8818 37.144 58.8365 37.144C58.0045 37.144 57.2578 36.9573 56.5965 36.584C55.9458 36.2107 55.4338 35.6827 55.0605 35C54.6872 34.3067 54.5005 33.5067 54.5005 32.6C54.5005 31.6933 54.6818 30.8987 55.0445 30.216C55.4072 29.5333 55.9138 29.0107 56.5645 28.648C57.2258 28.2747 57.9832 28.088 58.8365 28.088C59.6685 28.088 60.4045 28.2693 61.0445 28.632C61.6845 28.9947 62.1752 29.496 62.5165 30.136C62.8685 30.7653 63.0445 31.48 63.0445 32.28ZM61.5405 31.976C61.5405 31.4213 61.4178 30.9467 61.1725 30.552C60.9272 30.1467 60.5912 29.8427 60.1645 29.64C59.7485 29.4267 59.2845 29.32 58.7725 29.32C58.0365 29.32 57.4072 29.5547 56.8845 30.024C56.3725 30.4933 56.0792 31.144 56.0045 31.976H61.5405ZM66.4224 29.656C66.6784 29.1547 67.041 28.7653 67.5104 28.488C67.9904 28.2107 68.5717 28.072 69.2544 28.072V29.576H68.8704C67.2384 29.576 66.4224 30.4613 66.4224 32.232V37H64.9664V28.232H66.4224V29.656ZM85.7448 28.072C86.4274 28.072 87.0354 28.216 87.5688 28.504C88.1021 28.7813 88.5234 29.2027 88.8328 29.768C89.1421 30.3333 89.2968 31.0213 89.2968 31.832V37H87.8568V32.04C87.8568 31.1653 87.6381 30.4987 87.2008 30.04C86.7741 29.5707 86.1928 29.336 85.4568 29.336C84.6994 29.336 84.0968 29.5813 83.6488 30.072C83.2008 30.552 82.9768 31.2507 82.9768 32.168V37H81.5368V32.04C81.5368 31.1653 81.3181 30.4987 80.8808 30.04C80.4541 29.5707 79.8728 29.336 79.1368 29.336C78.3794 29.336 77.7768 29.5813 77.3288 30.072C76.8808 30.552 76.6568 31.2507 76.6568 32.168V37H75.2008V28.232H76.6568V29.496C76.9448 29.0373 77.3288 28.6853 77.8088 28.44C78.2994 28.1947 78.8381 28.072 79.4248 28.072C80.1608 28.072 80.8114 28.2373 81.3768 28.568C81.9421 28.8987 82.3634 29.384 82.6408 30.024C82.8861 29.4053 83.2914 28.9253 83.8568 28.584C84.4221 28.2427 85.0514 28.072 85.7448 28.072ZM91.1411 32.584C91.1411 31.688 91.3225 30.904 91.6851 30.232C92.0478 29.5493 92.5438 29.0213 93.1731 28.648C93.8131 28.2747 94.5225 28.088 95.3011 28.088C96.0691 28.088 96.7358 28.2533 97.3011 28.584C97.8665 28.9147 98.2878 29.3307 98.5651 29.832V28.232H100.037V37H98.5651V35.368C98.2771 35.88 97.8451 36.3067 97.2691 36.648C96.7038 36.9787 96.0425 37.144 95.2851 37.144C94.5065 37.144 93.8025 36.952 93.1731 36.568C92.5438 36.184 92.0478 35.6453 91.6851 34.952C91.3225 34.2587 91.1411 33.4693 91.1411 32.584ZM98.5651 32.6C98.5651 31.9387 98.4318 31.3627 98.1651 30.872C97.8985 30.3813 97.5358 30.008 97.0771 29.752C96.6291 29.4853 96.1331 29.352 95.5891 29.352C95.0451 29.352 94.5491 29.48 94.1011 29.736C93.6531 29.992 93.2958 30.3653 93.0291 30.856C92.7625 31.3467 92.6291 31.9227 92.6291 32.584C92.6291 33.256 92.7625 33.8427 93.0291 34.344C93.2958 34.8347 93.6531 35.2133 94.1011 35.48C94.5491 35.736 95.0451 35.864 95.5891 35.864C96.1331 35.864 96.6291 35.736 97.0771 35.48C97.5358 35.2133 97.8985 34.8347 98.1651 34.344C98.4318 33.8427 98.5651 33.2613 98.5651 32.6ZM103.25 26.808C102.972 26.808 102.738 26.712 102.546 26.52C102.354 26.328 102.258 26.0933 102.258 25.816C102.258 25.5387 102.354 25.304 102.546 25.112C102.738 24.92 102.972 24.824 103.25 24.824C103.516 24.824 103.74 24.92 103.922 25.112C104.114 25.304 104.21 25.5387 104.21 25.816C104.21 26.0933 104.114 26.328 103.922 26.52C103.74 26.712 103.516 26.808 103.25 26.808ZM103.954 28.232V37H102.498V28.232H103.954ZM109.539 37.144C108.867 37.144 108.264 37.032 107.731 36.808C107.198 36.5733 106.776 36.2533 106.467 35.848C106.158 35.432 105.987 34.9573 105.955 34.424H107.459C107.502 34.8613 107.704 35.2187 108.067 35.496C108.44 35.7733 108.926 35.912 109.523 35.912C110.078 35.912 110.515 35.7893 110.835 35.544C111.155 35.2987 111.315 34.9893 111.315 34.616C111.315 34.232 111.144 33.9493 110.803 33.768C110.462 33.576 109.934 33.3893 109.219 33.208C108.568 33.0373 108.035 32.8667 107.619 32.696C107.214 32.5147 106.862 32.2533 106.563 31.912C106.275 31.56 106.131 31.1013 106.131 30.536C106.131 30.088 106.264 29.6773 106.531 29.304C106.798 28.9307 107.176 28.6373 107.667 28.424C108.158 28.2 108.718 28.088 109.347 28.088C110.318 28.088 111.102 28.3333 111.699 28.824C112.296 29.3147 112.616 29.9867 112.659 30.84H111.203C111.171 30.3813 110.984 30.0133 110.643 29.736C110.312 29.4587 109.864 29.32 109.299 29.32C108.776 29.32 108.36 29.432 108.051 29.656C107.742 29.88 107.587 30.1733 107.587 30.536C107.587 30.824 107.678 31.064 107.859 31.256C108.051 31.4373 108.286 31.5867 108.563 31.704C108.851 31.8107 109.246 31.9333 109.747 32.072C110.376 32.2427 110.888 32.4133 111.283 32.584C111.678 32.744 112.014 32.9893 112.291 33.32C112.579 33.6507 112.728 34.0827 112.739 34.616C112.739 35.096 112.606 35.528 112.339 35.912C112.072 36.296 111.694 36.6 111.203 36.824C110.723 37.0373 110.168 37.144 109.539 37.144Z" fill="black"/>
<rect x="433" width="130" height="60" rx="5" fill="white"/>
<path d="M483.688 34.112C483.688 35.04 483.368 35.8133 482.728 36.432C482.099 37.04 481.133 37.344 479.832 37.344H477.688V42H476.232V30.848H479.832C481.091 30.848 482.045 31.152 482.696 31.76C483.357 32.368 483.688 33.152 483.688 34.112ZM479.832 36.144C480.643 36.144 481.24 35.968 481.624 35.616C482.008 35.264 482.2 34.7627 482.2 34.112C482.2 32.736 481.411 32.048 479.832 32.048H477.688V36.144H479.832ZM486.954 30.16V42H485.498V30.16H486.954ZM488.891 37.584C488.891 36.688 489.072 35.904 489.435 35.232C489.798 34.5493 490.294 34.0213 490.923 33.648C491.563 33.2747 492.272 33.088 493.051 33.088C493.819 33.088 494.486 33.2533 495.051 33.584C495.616 33.9147 496.038 34.3307 496.315 34.832V33.232H497.787V42H496.315V40.368C496.027 40.88 495.595 41.3067 495.019 41.648C494.454 41.9787 493.792 42.144 493.035 42.144C492.256 42.144 491.552 41.952 490.923 41.568C490.294 41.184 489.798 40.6453 489.435 39.952C489.072 39.2587 488.891 38.4693 488.891 37.584ZM496.315 37.6C496.315 36.9387 496.182 36.3627 495.915 35.872C495.648 35.3813 495.286 35.008 494.827 34.752C494.379 34.4853 493.883 34.352 493.339 34.352C492.795 34.352 492.299 34.48 491.851 34.736C491.403 34.992 491.046 35.3653 490.779 35.856C490.512 36.3467 490.379 36.9227 490.379 37.584C490.379 38.256 490.512 38.8427 490.779 39.344C491.046 39.8347 491.403 40.2133 491.851 40.48C492.299 40.736 492.795 40.864 493.339 40.864C493.883 40.864 494.379 40.736 494.827 40.48C495.286 40.2133 495.648 39.8347 495.915 39.344C496.182 38.8427 496.315 38.2613 496.315 37.6ZM507.8 33.232L502.52 46.128H501.016L502.744 41.904L499.208 33.232H500.824L503.576 40.336L506.296 33.232H507.8ZM512.799 42.112C512.063 42.112 511.402 41.984 510.815 41.728C510.239 41.4613 509.786 41.0987 509.455 40.64C509.125 40.1707 508.954 39.632 508.943 39.024H510.495C510.549 39.5467 510.762 39.9893 511.135 40.352C511.519 40.704 512.074 40.88 512.799 40.88C513.493 40.88 514.037 40.7093 514.431 40.368C514.837 40.016 515.039 39.568 515.039 39.024C515.039 38.5973 514.922 38.2507 514.687 37.984C514.453 37.7173 514.159 37.5147 513.807 37.376C513.455 37.2373 512.981 37.088 512.383 36.928C511.647 36.736 511.055 36.544 510.607 36.352C510.17 36.16 509.791 35.8613 509.471 35.456C509.162 35.04 509.007 34.4853 509.007 33.792C509.007 33.184 509.162 32.6453 509.471 32.176C509.781 31.7067 510.213 31.344 510.767 31.088C511.333 30.832 511.978 30.704 512.703 30.704C513.749 30.704 514.602 30.9653 515.263 31.488C515.935 32.0107 516.314 32.704 516.399 33.568H514.799C514.746 33.1413 514.522 32.768 514.127 32.448C513.733 32.1173 513.21 31.952 512.559 31.952C511.951 31.952 511.455 32.112 511.071 32.432C510.687 32.7413 510.495 33.1787 510.495 33.744C510.495 34.1493 510.607 34.48 510.831 34.736C511.066 34.992 511.349 35.1893 511.679 35.328C512.021 35.456 512.495 35.6053 513.103 35.776C513.839 35.9787 514.431 36.1813 514.879 36.384C515.327 36.576 515.711 36.88 516.031 37.296C516.351 37.7013 516.511 38.256 516.511 38.96C516.511 39.504 516.367 40.016 516.079 40.496C515.791 40.976 515.365 41.3653 514.799 41.664C514.234 41.9627 513.567 42.112 512.799 42.112ZM520.43 34.432V39.6C520.43 40.0267 520.521 40.3307 520.702 40.512C520.883 40.6827 521.198 40.768 521.646 40.768H522.718V42H521.406C520.595 42 519.987 41.8133 519.582 41.44C519.177 41.0667 518.974 40.4533 518.974 39.6V34.432H517.838V33.232H518.974V31.024H520.43V33.232H522.718V34.432H520.43ZM528.306 42.144C527.485 42.144 526.738 41.9573 526.066 41.584C525.405 41.2107 524.882 40.6827 524.498 40C524.125 39.3067 523.938 38.5067 523.938 37.6C523.938 36.704 524.13 35.9147 524.514 35.232C524.909 34.5387 525.442 34.0107 526.114 33.648C526.786 33.2747 527.538 33.088 528.37 33.088C529.202 33.088 529.954 33.2747 530.626 33.648C531.298 34.0107 531.826 34.5333 532.21 35.216C532.605 35.8987 532.802 36.6933 532.802 37.6C532.802 38.5067 532.599 39.3067 532.194 40C531.799 40.6827 531.261 41.2107 530.578 41.584C529.895 41.9573 529.138 42.144 528.306 42.144ZM528.306 40.864C528.829 40.864 529.319 40.7413 529.778 40.496C530.237 40.2507 530.605 39.8827 530.882 39.392C531.17 38.9013 531.314 38.304 531.314 37.6C531.314 36.896 531.175 36.2987 530.898 35.808C530.621 35.3173 530.258 34.9547 529.81 34.72C529.362 34.4747 528.877 34.352 528.354 34.352C527.821 34.352 527.33 34.4747 526.882 34.72C526.445 34.9547 526.093 35.3173 525.826 35.808C525.559 36.2987 525.426 36.896 525.426 37.6C525.426 38.3147 525.554 38.9173 525.81 39.408C526.077 39.8987 526.429 40.2667 526.866 40.512C527.303 40.7467 527.783 40.864 528.306 40.864ZM536.172 34.656C536.428 34.1547 536.791 33.7653 537.26 33.488C537.74 33.2107 538.322 33.072 539.004 33.072V34.576H538.62C536.988 34.576 536.172 35.4613 536.172 37.232V42H534.716V33.232H536.172V34.656ZM548.685 37.28C548.685 37.5573 548.669 37.8507 548.637 38.16H541.629C541.682 39.024 541.976 39.7013 542.509 40.192C543.053 40.672 543.709 40.912 544.477 40.912C545.106 40.912 545.629 40.768 546.045 40.48C546.472 40.1813 546.77 39.7867 546.941 39.296H548.509C548.274 40.1387 547.805 40.8267 547.101 41.36C546.397 41.8827 545.522 42.144 544.477 42.144C543.645 42.144 542.898 41.9573 542.237 41.584C541.586 41.2107 541.074 40.6827 540.701 40C540.328 39.3067 540.141 38.5067 540.141 37.6C540.141 36.6933 540.322 35.8987 540.685 35.216C541.048 34.5333 541.554 34.0107 542.205 33.648C542.866 33.2747 543.624 33.088 544.477 33.088C545.309 33.088 546.045 33.2693 546.685 33.632C547.325 33.9947 547.816 34.496 548.157 35.136C548.509 35.7653 548.685 36.48 548.685 37.28ZM547.181 36.976C547.181 36.4213 547.058 35.9467 546.813 35.552C546.568 35.1467 546.232 34.8427 545.805 34.64C545.389 34.4267 544.925 34.32 544.413 34.32C543.677 34.32 543.048 34.5547 542.525 35.024C542.013 35.4933 541.72 36.144 541.645 36.976H547.181Z" fill="black"/>
<path d="M477.94 16.03C478.7 16.03 479.357 16.1733 479.91 16.46C480.47 16.74 480.897 17.1433 481.19 17.67C481.49 18.1967 481.64 18.8167 481.64 19.53C481.64 20.2433 481.49 20.8633 481.19 21.39C480.897 21.91 480.47 22.31 479.91 22.59C479.357 22.8633 478.7 23 477.94 23H475.77V16.03H477.94ZM477.94 22.25C478.84 22.25 479.527 22.0133 480 21.54C480.473 21.06 480.71 20.39 480.71 19.53C480.71 18.6633 480.47 17.9867 479.99 17.5C479.517 17.0133 478.833 16.77 477.94 16.77H476.68V22.25H477.94ZM483.31 16.63C483.137 16.63 482.99 16.57 482.87 16.45C482.75 16.33 482.69 16.1833 482.69 16.01C482.69 15.8367 482.75 15.69 482.87 15.57C482.99 15.45 483.137 15.39 483.31 15.39C483.477 15.39 483.617 15.45 483.73 15.57C483.85 15.69 483.91 15.8367 483.91 16.01C483.91 16.1833 483.85 16.33 483.73 16.45C483.617 16.57 483.477 16.63 483.31 16.63ZM483.75 17.52V23H482.84V17.52H483.75ZM487.241 23.09C486.821 23.09 486.445 23.02 486.111 22.88C485.778 22.7333 485.515 22.5333 485.321 22.28C485.128 22.02 485.021 21.7233 485.001 21.39H485.941C485.968 21.6633 486.095 21.8867 486.321 22.06C486.555 22.2333 486.858 22.32 487.231 22.32C487.578 22.32 487.851 22.2433 488.051 22.09C488.251 21.9367 488.351 21.7433 488.351 21.51C488.351 21.27 488.245 21.0933 488.031 20.98C487.818 20.86 487.488 20.7433 487.041 20.63C486.635 20.5233 486.301 20.4167 486.041 20.31C485.788 20.1967 485.568 20.0333 485.381 19.82C485.201 19.6 485.111 19.3133 485.111 18.96C485.111 18.68 485.195 18.4233 485.361 18.19C485.528 17.9567 485.765 17.7733 486.071 17.64C486.378 17.5 486.728 17.43 487.121 17.43C487.728 17.43 488.218 17.5833 488.591 17.89C488.965 18.1967 489.165 18.6167 489.191 19.15H488.281C488.261 18.8633 488.145 18.6333 487.931 18.46C487.725 18.2867 487.445 18.2 487.091 18.2C486.765 18.2 486.505 18.27 486.311 18.41C486.118 18.55 486.021 18.7333 486.021 18.96C486.021 19.14 486.078 19.29 486.191 19.41C486.311 19.5233 486.458 19.6167 486.631 19.69C486.811 19.7567 487.058 19.8333 487.371 19.92C487.765 20.0267 488.085 20.1333 488.331 20.24C488.578 20.34 488.788 20.4933 488.961 20.7C489.141 20.9067 489.235 21.1767 489.241 21.51C489.241 21.81 489.158 22.08 488.991 22.32C488.825 22.56 488.588 22.75 488.281 22.89C487.981 23.0233 487.635 23.09 487.241 23.09ZM491.436 18.53C491.616 18.2167 491.883 17.9567 492.236 17.75C492.596 17.5367 493.013 17.43 493.486 17.43C493.973 17.43 494.413 17.5467 494.806 17.78C495.206 18.0133 495.519 18.3433 495.746 18.77C495.973 19.19 496.086 19.68 496.086 20.24C496.086 20.7933 495.973 21.2867 495.746 21.72C495.519 22.1533 495.206 22.49 494.806 22.73C494.413 22.97 493.973 23.09 493.486 23.09C493.019 23.09 492.606 22.9867 492.246 22.78C491.893 22.5667 491.623 22.3033 491.436 21.99V25.6H490.526V17.52H491.436V18.53ZM495.156 20.24C495.156 19.8267 495.073 19.4667 494.906 19.16C494.739 18.8533 494.513 18.62 494.226 18.46C493.946 18.3 493.636 18.22 493.296 18.22C492.963 18.22 492.653 18.3033 492.366 18.47C492.086 18.63 491.859 18.8667 491.686 19.18C491.519 19.4867 491.436 19.8433 491.436 20.25C491.436 20.6633 491.519 21.0267 491.686 21.34C491.859 21.6467 492.086 21.8833 492.366 22.05C492.653 22.21 492.963 22.29 493.296 22.29C493.636 22.29 493.946 22.21 494.226 22.05C494.513 21.8833 494.739 21.6467 494.906 21.34C495.073 21.0267 495.156 20.66 495.156 20.24ZM499.674 23.09C499.16 23.09 498.694 22.9733 498.274 22.74C497.86 22.5067 497.534 22.1767 497.294 21.75C497.06 21.3167 496.944 20.8167 496.944 20.25C496.944 19.69 497.064 19.1967 497.304 18.77C497.55 18.3367 497.884 18.0067 498.304 17.78C498.724 17.5467 499.194 17.43 499.714 17.43C500.234 17.43 500.704 17.5467 501.124 17.78C501.544 18.0067 501.874 18.3333 502.114 18.76C502.36 19.1867 502.484 19.6833 502.484 20.25C502.484 20.8167 502.357 21.3167 502.104 21.75C501.857 22.1767 501.52 22.5067 501.094 22.74C500.667 22.9733 500.194 23.09 499.674 23.09ZM499.674 22.29C500 22.29 500.307 22.2133 500.594 22.06C500.88 21.9067 501.11 21.6767 501.284 21.37C501.464 21.0633 501.554 20.69 501.554 20.25C501.554 19.81 501.467 19.4367 501.294 19.13C501.12 18.8233 500.894 18.5967 500.614 18.45C500.334 18.2967 500.03 18.22 499.704 18.22C499.37 18.22 499.064 18.2967 498.784 18.45C498.51 18.5967 498.29 18.8233 498.124 19.13C497.957 19.4367 497.874 19.81 497.874 20.25C497.874 20.6967 497.954 21.0733 498.114 21.38C498.28 21.6867 498.5 21.9167 498.774 22.07C499.047 22.2167 499.347 22.29 499.674 22.29ZM506.35 17.42C507.017 17.42 507.557 17.6233 507.97 18.03C508.383 18.43 508.59 19.01 508.59 19.77V23H507.69V19.9C507.69 19.3533 507.553 18.9367 507.28 18.65C507.007 18.3567 506.633 18.21 506.16 18.21C505.68 18.21 505.297 18.36 505.01 18.66C504.73 18.96 504.59 19.3967 504.59 19.97V23H503.68V17.52H504.59V18.3C504.77 18.02 505.013 17.8033 505.32 17.65C505.633 17.4967 505.977 17.42 506.35 17.42ZM510.987 17.52V23H510.077V17.52H510.987ZM511.507 15.97L509.377 17.11V16.43L511.507 15.18V15.97ZM514.578 22.16L516.278 17.52H517.248L515.098 23H514.038L511.888 17.52H512.868L514.578 22.16ZM523.143 20.05C523.143 20.2233 523.133 20.4067 523.113 20.6H518.733C518.766 21.14 518.95 21.5633 519.283 21.87C519.623 22.17 520.033 22.32 520.513 22.32C520.906 22.32 521.233 22.23 521.493 22.05C521.76 21.8633 521.946 21.6167 522.053 21.31H523.033C522.886 21.8367 522.593 22.2667 522.153 22.6C521.713 22.9267 521.166 23.09 520.513 23.09C519.993 23.09 519.526 22.9733 519.113 22.74C518.706 22.5067 518.386 22.1767 518.153 21.75C517.92 21.3167 517.803 20.8167 517.803 20.25C517.803 19.6833 517.916 19.1867 518.143 18.76C518.37 18.3333 518.686 18.0067 519.093 17.78C519.506 17.5467 519.98 17.43 520.513 17.43C521.033 17.43 521.493 17.5433 521.893 17.77C522.293 17.9967 522.6 18.31 522.813 18.71C523.033 19.1033 523.143 19.55 523.143 20.05ZM522.203 19.86C522.203 19.5133 522.126 19.2167 521.973 18.97C521.82 18.7167 521.61 18.5267 521.343 18.4C521.083 18.2667 520.793 18.2 520.473 18.2C520.013 18.2 519.62 18.3467 519.293 18.64C518.973 18.9333 518.79 19.34 518.743 19.86H522.203ZM525.254 15.6V23H524.344V15.6H525.254ZM532.141 17.42C532.808 17.42 533.348 17.6233 533.761 18.03C534.175 18.43 534.381 19.01 534.381 19.77V23H533.481V19.9C533.481 19.3533 533.345 18.9367 533.071 18.65C532.798 18.3567 532.425 18.21 531.951 18.21C531.471 18.21 531.088 18.36 530.801 18.66C530.521 18.96 530.381 19.3967 530.381 19.97V23H529.471V17.52H530.381V18.3C530.561 18.02 530.805 17.8033 531.111 17.65C531.425 17.4967 531.768 17.42 532.141 17.42ZM535.528 20.24C535.528 19.68 535.641 19.19 535.868 18.77C536.094 18.3433 536.404 18.0133 536.798 17.78C537.198 17.5467 537.641 17.43 538.128 17.43C538.608 17.43 539.024 17.5333 539.378 17.74C539.731 17.9467 539.994 18.2067 540.168 18.52V17.52H541.088V23H540.168V21.98C539.988 22.3 539.718 22.5667 539.358 22.78C539.004 22.9867 538.591 23.09 538.118 23.09C537.631 23.09 537.191 22.97 536.798 22.73C536.404 22.49 536.094 22.1533 535.868 21.72C535.641 21.2867 535.528 20.7933 535.528 20.24ZM540.168 20.25C540.168 19.8367 540.084 19.4767 539.918 19.17C539.751 18.8633 539.524 18.63 539.238 18.47C538.958 18.3033 538.648 18.22 538.308 18.22C537.968 18.22 537.658 18.3 537.378 18.46C537.098 18.62 536.874 18.8533 536.708 19.16C536.541 19.4667 536.458 19.8267 536.458 20.24C536.458 20.66 536.541 21.0267 536.708 21.34C536.874 21.6467 537.098 21.8833 537.378 22.05C537.658 22.21 537.968 22.29 538.308 22.29C538.648 22.29 538.958 22.21 539.238 22.05C539.524 21.8833 539.751 21.6467 539.918 21.34C540.084 21.0267 540.168 20.6633 540.168 20.25Z" fill="black"/>
<path d="M453.248 29.9828L442.903 19.6094L456.066 27.1656L453.248 29.9828ZM440.203 19C439.594 19.3188 439.186 19.9 439.186 20.6547V41.3406C439.186 42.0953 439.594 42.6766 440.203 42.9953L452.231 30.9953L440.203 19ZM460.134 29.575L457.373 27.9766L454.294 31L457.373 34.0234L460.191 32.425C461.034 31.7547 461.034 30.2453 460.134 29.575ZM442.903 42.3906L456.066 34.8344L453.248 32.0172L442.903 42.3906Z" fill="black"/>
<rect x="234" width="130" height="60" rx="5" fill="white"/>
<path d="M291.68 35.08C291.371 34.4293 290.923 33.928 290.336 33.576C289.749 33.2133 289.067 33.032 288.288 33.032C287.509 33.032 286.805 33.2133 286.176 33.576C285.557 33.928 285.067 34.44 284.704 35.112C284.352 35.7733 284.176 36.5413 284.176 37.416C284.176 38.2907 284.352 39.0587 284.704 39.72C285.067 40.3813 285.557 40.8933 286.176 41.256C286.805 41.608 287.509 41.784 288.288 41.784C289.376 41.784 290.272 41.4587 290.976 40.808C291.68 40.1573 292.091 39.2773 292.208 38.168H287.76V36.984H293.76V38.104C293.675 39.0213 293.387 39.864 292.896 40.632C292.405 41.3893 291.76 41.992 290.96 42.44C290.16 42.8773 289.269 43.096 288.288 43.096C287.253 43.096 286.309 42.856 285.456 42.376C284.603 41.8853 283.925 41.208 283.424 40.344C282.933 39.48 282.688 38.504 282.688 37.416C282.688 36.328 282.933 35.352 283.424 34.488C283.925 33.6133 284.603 32.936 285.456 32.456C286.309 31.9653 287.253 31.72 288.288 31.72C289.472 31.72 290.517 32.0133 291.424 32.6C292.341 33.1867 293.008 34.0133 293.424 35.08H291.68ZM296.437 32.808C296.16 32.808 295.925 32.712 295.733 32.52C295.541 32.328 295.445 32.0933 295.445 31.816C295.445 31.5387 295.541 31.304 295.733 31.112C295.925 30.92 296.16 30.824 296.437 30.824C296.704 30.824 296.928 30.92 297.109 31.112C297.301 31.304 297.397 31.5387 297.397 31.816C297.397 32.0933 297.301 32.328 297.109 32.52C296.928 32.712 296.704 32.808 296.437 32.808ZM297.141 34.232V43H295.685V34.232H297.141ZM301.399 35.432V40.6C301.399 41.0267 301.489 41.3307 301.671 41.512C301.852 41.6827 302.167 41.768 302.615 41.768H303.687V43H302.375C301.564 43 300.956 42.8133 300.551 42.44C300.145 42.0667 299.943 41.4533 299.943 40.6V35.432H298.807V34.232H299.943V32.024H301.399V34.232H303.687V35.432H301.399ZM314.043 31.848V43H312.587V37.944H306.907V43H305.451V31.848H306.907V36.744H312.587V31.848H314.043ZM324.305 34.232V43H322.849V41.704C322.572 42.152 322.182 42.504 321.681 42.76C321.19 43.0053 320.646 43.128 320.049 43.128C319.366 43.128 318.753 42.9893 318.209 42.712C317.665 42.424 317.233 41.9973 316.913 41.432C316.604 40.8667 316.449 40.1787 316.449 39.368V34.232H317.889V39.176C317.889 40.04 318.108 40.7067 318.545 41.176C318.982 41.6347 319.58 41.864 320.337 41.864C321.116 41.864 321.729 41.624 322.177 41.144C322.625 40.664 322.849 39.9653 322.849 39.048V34.232H324.305ZM328.219 35.864C328.518 35.3413 328.955 34.9147 329.531 34.584C330.107 34.2533 330.763 34.088 331.499 34.088C332.289 34.088 332.998 34.2747 333.627 34.648C334.257 35.0213 334.753 35.5493 335.115 36.232C335.478 36.904 335.659 37.688 335.659 38.584C335.659 39.4693 335.478 40.2587 335.115 40.952C334.753 41.6453 334.251 42.184 333.611 42.568C332.982 42.952 332.278 43.144 331.499 43.144C330.742 43.144 330.075 42.9787 329.499 42.648C328.934 42.3173 328.507 41.896 328.219 41.384V43H326.763V31.16H328.219V35.864ZM334.171 38.584C334.171 37.9227 334.038 37.3467 333.771 36.856C333.505 36.3653 333.142 35.992 332.683 35.736C332.235 35.48 331.739 35.352 331.195 35.352C330.662 35.352 330.166 35.4853 329.707 35.752C329.259 36.008 328.897 36.3867 328.619 36.888C328.353 37.3787 328.219 37.9493 328.219 38.6C328.219 39.2613 328.353 39.8427 328.619 40.344C328.897 40.8347 329.259 41.2133 329.707 41.48C330.166 41.736 330.662 41.864 331.195 41.864C331.739 41.864 332.235 41.736 332.683 41.48C333.142 41.2133 333.505 40.8347 333.771 40.344C334.038 39.8427 334.171 39.256 334.171 38.584Z" fill="black"/>
<path d="M278.94 17.03C279.7 17.03 280.357 17.1733 280.91 17.46C281.47 17.74 281.897 18.1433 282.19 18.67C282.49 19.1967 282.64 19.8167 282.64 20.53C282.64 21.2433 282.49 21.8633 282.19 22.39C281.897 22.91 281.47 23.31 280.91 23.59C280.357 23.8633 279.7 24 278.94 24H276.77V17.03H278.94ZM278.94 23.25C279.84 23.25 280.527 23.0133 281 22.54C281.473 22.06 281.71 21.39 281.71 20.53C281.71 19.6633 281.47 18.9867 280.99 18.5C280.517 18.0133 279.833 17.77 278.94 17.77H277.68V23.25H278.94ZM284.31 17.63C284.137 17.63 283.99 17.57 283.87 17.45C283.75 17.33 283.69 17.1833 283.69 17.01C283.69 16.8367 283.75 16.69 283.87 16.57C283.99 16.45 284.137 16.39 284.31 16.39C284.477 16.39 284.617 16.45 284.73 16.57C284.85 16.69 284.91 16.8367 284.91 17.01C284.91 17.1833 284.85 17.33 284.73 17.45C284.617 17.57 284.477 17.63 284.31 17.63ZM284.75 18.52V24H283.84V18.52H284.75ZM288.241 24.09C287.821 24.09 287.445 24.02 287.111 23.88C286.778 23.7333 286.515 23.5333 286.321 23.28C286.128 23.02 286.021 22.7233 286.001 22.39H286.941C286.968 22.6633 287.095 22.8867 287.321 23.06C287.555 23.2333 287.858 23.32 288.231 23.32C288.578 23.32 288.851 23.2433 289.051 23.09C289.251 22.9367 289.351 22.7433 289.351 22.51C289.351 22.27 289.245 22.0933 289.031 21.98C288.818 21.86 288.488 21.7433 288.041 21.63C287.635 21.5233 287.301 21.4167 287.041 21.31C286.788 21.1967 286.568 21.0333 286.381 20.82C286.201 20.6 286.111 20.3133 286.111 19.96C286.111 19.68 286.195 19.4233 286.361 19.19C286.528 18.9567 286.765 18.7733 287.071 18.64C287.378 18.5 287.728 18.43 288.121 18.43C288.728 18.43 289.218 18.5833 289.591 18.89C289.965 19.1967 290.165 19.6167 290.191 20.15H289.281C289.261 19.8633 289.145 19.6333 288.931 19.46C288.725 19.2867 288.445 19.2 288.091 19.2C287.765 19.2 287.505 19.27 287.311 19.41C287.118 19.55 287.021 19.7333 287.021 19.96C287.021 20.14 287.078 20.29 287.191 20.41C287.311 20.5233 287.458 20.6167 287.631 20.69C287.811 20.7567 288.058 20.8333 288.371 20.92C288.765 21.0267 289.085 21.1333 289.331 21.24C289.578 21.34 289.788 21.4933 289.961 21.7C290.141 21.9067 290.235 22.1767 290.241 22.51C290.241 22.81 290.158 23.08 289.991 23.32C289.825 23.56 289.588 23.75 289.281 23.89C288.981 24.0233 288.635 24.09 288.241 24.09ZM292.436 19.53C292.616 19.2167 292.883 18.9567 293.236 18.75C293.596 18.5367 294.013 18.43 294.486 18.43C294.973 18.43 295.413 18.5467 295.806 18.78C296.206 19.0133 296.519 19.3433 296.746 19.77C296.973 20.19 297.086 20.68 297.086 21.24C297.086 21.7933 296.973 22.2867 296.746 22.72C296.519 23.1533 296.206 23.49 295.806 23.73C295.413 23.97 294.973 24.09 294.486 24.09C294.019 24.09 293.606 23.9867 293.246 23.78C292.893 23.5667 292.623 23.3033 292.436 22.99V26.6H291.526V18.52H292.436V19.53ZM296.156 21.24C296.156 20.8267 296.073 20.4667 295.906 20.16C295.739 19.8533 295.513 19.62 295.226 19.46C294.946 19.3 294.636 19.22 294.296 19.22C293.963 19.22 293.653 19.3033 293.366 19.47C293.086 19.63 292.859 19.8667 292.686 20.18C292.519 20.4867 292.436 20.8433 292.436 21.25C292.436 21.6633 292.519 22.0267 292.686 22.34C292.859 22.6467 293.086 22.8833 293.366 23.05C293.653 23.21 293.963 23.29 294.296 23.29C294.636 23.29 294.946 23.21 295.226 23.05C295.513 22.8833 295.739 22.6467 295.906 22.34C296.073 22.0267 296.156 21.66 296.156 21.24ZM300.674 24.09C300.16 24.09 299.694 23.9733 299.274 23.74C298.86 23.5067 298.534 23.1767 298.294 22.75C298.06 22.3167 297.944 21.8167 297.944 21.25C297.944 20.69 298.064 20.1967 298.304 19.77C298.55 19.3367 298.884 19.0067 299.304 18.78C299.724 18.5467 300.194 18.43 300.714 18.43C301.234 18.43 301.704 18.5467 302.124 18.78C302.544 19.0067 302.874 19.3333 303.114 19.76C303.36 20.1867 303.484 20.6833 303.484 21.25C303.484 21.8167 303.357 22.3167 303.104 22.75C302.857 23.1767 302.52 23.5067 302.094 23.74C301.667 23.9733 301.194 24.09 300.674 24.09ZM300.674 23.29C301 23.29 301.307 23.2133 301.594 23.06C301.88 22.9067 302.11 22.6767 302.284 22.37C302.464 22.0633 302.554 21.69 302.554 21.25C302.554 20.81 302.467 20.4367 302.294 20.13C302.12 19.8233 301.894 19.5967 301.614 19.45C301.334 19.2967 301.03 19.22 300.704 19.22C300.37 19.22 300.064 19.2967 299.784 19.45C299.51 19.5967 299.29 19.8233 299.124 20.13C298.957 20.4367 298.874 20.81 298.874 21.25C298.874 21.6967 298.954 22.0733 299.114 22.38C299.28 22.6867 299.5 22.9167 299.774 23.07C300.047 23.2167 300.347 23.29 300.674 23.29ZM307.35 18.42C308.017 18.42 308.557 18.6233 308.97 19.03C309.383 19.43 309.59 20.01 309.59 20.77V24H308.69V20.9C308.69 20.3533 308.553 19.9367 308.28 19.65C308.007 19.3567 307.633 19.21 307.16 19.21C306.68 19.21 306.297 19.36 306.01 19.66C305.73 19.96 305.59 20.3967 305.59 20.97V24H304.68V18.52H305.59V19.3C305.77 19.02 306.013 18.8033 306.32 18.65C306.633 18.4967 306.977 18.42 307.35 18.42ZM311.987 18.52V24H311.077V18.52H311.987ZM312.507 16.97L310.377 18.11V17.43L312.507 16.18V16.97ZM315.578 23.16L317.278 18.52H318.248L316.098 24H315.038L312.888 18.52H313.868L315.578 23.16ZM324.143 21.05C324.143 21.2233 324.133 21.4067 324.113 21.6H319.733C319.766 22.14 319.95 22.5633 320.283 22.87C320.623 23.17 321.033 23.32 321.513 23.32C321.906 23.32 322.233 23.23 322.493 23.05C322.76 22.8633 322.946 22.6167 323.053 22.31H324.033C323.886 22.8367 323.593 23.2667 323.153 23.6C322.713 23.9267 322.166 24.09 321.513 24.09C320.993 24.09 320.526 23.9733 320.113 23.74C319.706 23.5067 319.386 23.1767 319.153 22.75C318.92 22.3167 318.803 21.8167 318.803 21.25C318.803 20.6833 318.916 20.1867 319.143 19.76C319.37 19.3333 319.686 19.0067 320.093 18.78C320.506 18.5467 320.98 18.43 321.513 18.43C322.033 18.43 322.493 18.5433 322.893 18.77C323.293 18.9967 323.6 19.31 323.813 19.71C324.033 20.1033 324.143 20.55 324.143 21.05ZM323.203 20.86C323.203 20.5133 323.126 20.2167 322.973 19.97C322.82 19.7167 322.61 19.5267 322.343 19.4C322.083 19.2667 321.793 19.2 321.473 19.2C321.013 19.2 320.62 19.3467 320.293 19.64C319.973 19.9333 319.79 20.34 319.743 20.86H323.203ZM326.254 16.6V24H325.344V16.6H326.254ZM333.141 18.42C333.808 18.42 334.348 18.6233 334.761 19.03C335.175 19.43 335.381 20.01 335.381 20.77V24H334.481V20.9C334.481 20.3533 334.345 19.9367 334.071 19.65C333.798 19.3567 333.425 19.21 332.951 19.21C332.471 19.21 332.088 19.36 331.801 19.66C331.521 19.96 331.381 20.3967 331.381 20.97V24H330.471V18.52H331.381V19.3C331.561 19.02 331.805 18.8033 332.111 18.65C332.425 18.4967 332.768 18.42 333.141 18.42ZM339.258 24.09C338.744 24.09 338.278 23.9733 337.858 23.74C337.444 23.5067 337.118 23.1767 336.878 22.75C336.644 22.3167 336.528 21.8167 336.528 21.25C336.528 20.69 336.648 20.1967 336.888 19.77C337.134 19.3367 337.468 19.0067 337.888 18.78C338.308 18.5467 338.778 18.43 339.298 18.43C339.818 18.43 340.288 18.5467 340.708 18.78C341.128 19.0067 341.458 19.3333 341.698 19.76C341.944 20.1867 342.068 20.6833 342.068 21.25C342.068 21.8167 341.941 22.3167 341.688 22.75C341.441 23.1767 341.104 23.5067 340.678 23.74C340.251 23.9733 339.778 24.09 339.258 24.09ZM339.258 23.29C339.584 23.29 339.891 23.2133 340.178 23.06C340.464 22.9067 340.694 22.6767 340.868 22.37C341.048 22.0633 341.138 21.69 341.138 21.25C341.138 20.81 341.051 20.4367 340.878 20.13C340.704 19.8233 340.478 19.5967 340.198 19.45C339.918 19.2967 339.614 19.22 339.288 19.22C338.954 19.22 338.648 19.2967 338.368 19.45C338.094 19.5967 337.874 19.8233 337.708 20.13C337.541 20.4367 337.458 20.81 337.458 21.25C337.458 21.6967 337.538 22.0733 337.698 22.38C337.864 22.6867 338.084 22.9167 338.358 23.07C338.631 23.2167 338.931 23.29 339.258 23.29Z" fill="black"/>
<path fill-rule="evenodd" clip-rule="evenodd" d="M251 19C244.37 19 239 24.37 239 31C239 36.31 242.435 40.795 247.205 42.385C247.805 42.49 248.03 42.13 248.03 41.815C248.03 41.53 248.015 40.585 248.015 39.58C245 40.135 244.22 38.845 243.98 38.17C243.845 37.825 243.26 36.76 242.75 36.475C242.33 36.25 241.73 35.695 242.735 35.68C243.68 35.665 244.355 36.55 244.58 36.91C245.66 38.725 247.385 38.215 248.075 37.9C248.18 37.12 248.495 36.595 248.84 36.295C246.17 35.995 243.38 34.96 243.38 30.37C243.38 29.065 243.845 27.985 244.61 27.145C244.49 26.845 244.07 25.615 244.73 23.965C244.73 23.965 245.735 23.65 248.03 25.195C248.99 24.925 250.01 24.79 251.03 24.79C252.05 24.79 253.07 24.925 254.03 25.195C256.325 23.635 257.33 23.965 257.33 23.965C257.99 25.615 257.57 26.845 257.45 27.145C258.215 27.985 258.68 29.05 258.68 30.37C258.68 34.975 255.875 35.995 253.205 36.295C253.64 36.67 254.015 37.39 254.015 38.515C254.015 40.12 254 41.41 254 41.815C254 42.13 254.225 42.505 254.825 42.385C257.207 41.5807 259.277 40.0497 260.744 38.0074C262.21 35.965 262.999 33.5143 263 31C263 24.37 257.63 19 251 19Z" fill="black"/>
</svg>
