<svg width="40" height="50" viewBox="0 0 40 50" fill="none" xmlns="http://www.w3.org/2000/svg">
<path d="M21.7 0.143525C18.7125 -0.60335 15.9375 1.65602 15.7375 4.58102C15.5125 7.8654 15.0187 10.881 14.4 12.6748C14.0094 13.7998 12.9031 15.8404 11.15 17.7967C9.40937 19.7435 7.14375 21.4779 4.49062 22.2029C2.39063 22.7748 0.25 24.5935 0.25 27.2498V39.7529C0.25 42.3935 2.38125 44.3279 4.775 44.581C8.11875 44.9373 9.6625 45.8779 11.2375 46.8404L11.3875 46.9342C12.2375 47.4498 13.1937 48.0216 14.4187 48.4467C15.6594 48.8717 17.1094 49.1248 19 49.1248H29.9375C32.8656 49.1248 34.9344 47.6341 35.9812 45.7998C36.4872 44.9341 36.7607 43.9523 36.775 42.9498C36.775 42.4748 36.7031 41.9748 36.5344 41.4998C37.1625 40.6779 37.7219 39.6935 38.0594 38.6841C38.4031 37.6529 38.5969 36.3029 38.0719 35.0935C38.2875 34.6873 38.4469 34.2529 38.5687 33.8341C38.8094 32.9904 38.9219 32.0592 38.9219 31.156C38.9219 30.256 38.8094 29.3279 38.5687 28.481C38.4594 28.0917 38.3151 27.7131 38.1375 27.3498C38.6847 26.5713 39.0367 25.6726 39.164 24.7296C39.2913 23.7865 39.19 22.8267 38.8687 21.931C38.225 20.081 36.7375 18.4935 35.1187 17.956C32.4719 17.0748 29.4844 17.0935 27.2562 17.2966C26.7937 17.3383 26.3321 17.3904 25.8719 17.4529C26.956 12.8104 26.8894 7.97326 25.6781 3.36227C25.4674 2.62349 25.0631 1.95442 24.5071 1.42424C23.9511 0.894069 23.2636 0.522048 22.5156 0.34665L21.7 0.143525ZM29.9375 46.0029H19C17.4062 46.0029 16.3031 45.7873 15.4375 45.4904C14.5594 45.1873 13.8562 44.7779 13.0125 44.2623L12.8875 44.1873C11.1531 43.1279 9.14375 41.9029 5.10625 41.4748C4.06562 41.3623 3.375 40.5685 3.375 39.756V27.2498C3.375 26.456 4.08125 25.5529 5.3125 25.2185C8.73437 24.281 11.4906 22.106 13.4812 19.881C15.4656 17.6623 16.8062 15.2717 17.35 13.6998C18.1094 11.5123 18.6219 8.17478 18.8562 4.79352C18.9344 3.66227 19.9812 2.93727 20.9406 3.17477L21.7594 3.38102C22.2594 3.50602 22.5656 3.8279 22.6594 4.1779C23.9356 9.04047 23.7782 14.1684 22.2062 18.9435C22.1173 19.2091 22.1013 19.4937 22.1601 19.7676C22.2188 20.0415 22.3501 20.2945 22.5402 20.5002C22.7302 20.7059 22.9721 20.8568 23.2405 20.937C23.5089 21.0172 23.7938 21.0238 24.0656 20.956L24.075 20.9529L24.1187 20.9435L24.3 20.8998C25.3686 20.6729 26.4496 20.509 27.5375 20.4092C29.6094 20.2217 32.0906 20.2404 34.1312 20.9217C34.6781 21.1029 35.5375 21.8591 35.9125 22.9529C36.2469 23.9154 36.1844 25.0466 35.0812 26.1466L33.9781 27.2498L35.0812 28.356C35.2156 28.4904 35.4094 28.7966 35.5625 29.3404C35.7125 29.8623 35.7969 30.4967 35.7969 31.156C35.7969 31.8185 35.7125 32.4498 35.5625 32.9748C35.4062 33.5185 35.2156 33.8248 35.0812 33.9591L33.9781 35.0623L35.0812 36.1685C35.2281 36.3154 35.4219 36.7216 35.0969 37.6935C34.7582 38.636 34.2199 39.4941 33.5187 40.2091L32.4156 41.3123L33.5187 42.4185C33.5375 42.4342 33.6469 42.5748 33.6469 42.9498C33.633 43.4081 33.5029 43.8555 33.2687 44.2498C32.7531 45.1498 31.6969 45.9998 29.9375 45.9998V46.0029Z" fill="#487C99"/>
</svg>
