<svg width="115" height="35" viewBox="0 0 115 35" fill="none" xmlns="http://www.w3.org/2000/svg">
<path d="M54.448 10.848L50.24 22H48.56L44.352 10.848H45.904L49.408 20.464L52.912 10.848H54.448ZM64.0445 17.28C64.0445 17.5573 64.0285 17.8507 63.9965 18.16H56.9885C57.0418 19.024 57.3352 19.7013 57.8685 20.192C58.4125 20.672 59.0685 20.912 59.8365 20.912C60.4658 20.912 60.9885 20.768 61.4045 20.48C61.8312 20.1813 62.1298 19.7867 62.3005 19.296H63.8685C63.6338 20.1387 63.1645 20.8267 62.4605 21.36C61.7565 21.8827 60.8818 22.144 59.8365 22.144C59.0045 22.144 58.2578 21.9573 57.5965 21.584C56.9458 21.2107 56.4338 20.6827 56.0605 20C55.6872 19.3067 55.5005 18.5067 55.5005 17.6C55.5005 16.6933 55.6818 15.8987 56.0445 15.216C56.4072 14.5333 56.9138 14.0107 57.5645 13.648C58.2258 13.2747 58.9832 13.088 59.8365 13.088C60.6685 13.088 61.4045 13.2693 62.0445 13.632C62.6845 13.9947 63.1752 14.496 63.5165 15.136C63.8685 15.7653 64.0445 16.48 64.0445 17.28ZM62.5405 16.976C62.5405 16.4213 62.4178 15.9467 62.1725 15.552C61.9272 15.1467 61.5912 14.8427 61.1645 14.64C60.7485 14.4267 60.2845 14.32 59.7725 14.32C59.0365 14.32 58.4072 14.5547 57.8845 15.024C57.3725 15.4933 57.0792 16.144 57.0045 16.976H62.5405ZM67.4224 14.656C67.6784 14.1547 68.041 13.7653 68.5104 13.488C68.9904 13.2107 69.5717 13.072 70.2544 13.072V14.576H69.8704C68.2384 14.576 67.4224 15.4613 67.4224 17.232V22H65.9664V13.232H67.4224V14.656ZM86.7448 13.072C87.4274 13.072 88.0354 13.216 88.5688 13.504C89.1021 13.7813 89.5234 14.2027 89.8328 14.768C90.1421 15.3333 90.2968 16.0213 90.2968 16.832V22H88.8568V17.04C88.8568 16.1653 88.6381 15.4987 88.2008 15.04C87.7741 14.5707 87.1928 14.336 86.4568 14.336C85.6994 14.336 85.0968 14.5813 84.6488 15.072C84.2008 15.552 83.9768 16.2507 83.9768 17.168V22H82.5368V17.04C82.5368 16.1653 82.3181 15.4987 81.8808 15.04C81.4541 14.5707 80.8728 14.336 80.1368 14.336C79.3794 14.336 78.7768 14.5813 78.3288 15.072C77.8808 15.552 77.6568 16.2507 77.6568 17.168V22H76.2008V13.232H77.6568V14.496C77.9448 14.0373 78.3288 13.6853 78.8088 13.44C79.2994 13.1947 79.8381 13.072 80.4248 13.072C81.1608 13.072 81.8114 13.2373 82.3768 13.568C82.9421 13.8987 83.3634 14.384 83.6408 15.024C83.8861 14.4053 84.2914 13.9253 84.8568 13.584C85.4221 13.2427 86.0514 13.072 86.7448 13.072ZM92.1411 17.584C92.1411 16.688 92.3225 15.904 92.6851 15.232C93.0478 14.5493 93.5438 14.0213 94.1731 13.648C94.8131 13.2747 95.5225 13.088 96.3011 13.088C97.0691 13.088 97.7358 13.2533 98.3011 13.584C98.8665 13.9147 99.2878 14.3307 99.5651 14.832V13.232H101.037V22H99.5651V20.368C99.2771 20.88 98.8451 21.3067 98.2691 21.648C97.7038 21.9787 97.0425 22.144 96.2851 22.144C95.5065 22.144 94.8025 21.952 94.1731 21.568C93.5438 21.184 93.0478 20.6453 92.6851 19.952C92.3225 19.2587 92.1411 18.4693 92.1411 17.584ZM99.5651 17.6C99.5651 16.9387 99.4318 16.3627 99.1651 15.872C98.8985 15.3813 98.5358 15.008 98.0771 14.752C97.6291 14.4853 97.1331 14.352 96.5891 14.352C96.0451 14.352 95.5491 14.48 95.1011 14.736C94.6531 14.992 94.2958 15.3653 94.0291 15.856C93.7625 16.3467 93.6291 16.9227 93.6291 17.584C93.6291 18.256 93.7625 18.8427 94.0291 19.344C94.2958 19.8347 94.6531 20.2133 95.1011 20.48C95.5491 20.736 96.0451 20.864 96.5891 20.864C97.1331 20.864 97.6291 20.736 98.0771 20.48C98.5358 20.2133 98.8985 19.8347 99.1651 19.344C99.4318 18.8427 99.5651 18.2613 99.5651 17.6ZM104.25 11.808C103.972 11.808 103.738 11.712 103.546 11.52C103.354 11.328 103.258 11.0933 103.258 10.816C103.258 10.5387 103.354 10.304 103.546 10.112C103.738 9.92 103.972 9.824 104.25 9.824C104.516 9.824 104.74 9.92 104.922 10.112C105.114 10.304 105.21 10.5387 105.21 10.816C105.21 11.0933 105.114 11.328 104.922 11.52C104.74 11.712 104.516 11.808 104.25 11.808ZM104.954 13.232V22H103.498V13.232H104.954ZM110.539 22.144C109.867 22.144 109.264 22.032 108.731 21.808C108.198 21.5733 107.776 21.2533 107.467 20.848C107.158 20.432 106.987 19.9573 106.955 19.424H108.459C108.502 19.8613 108.704 20.2187 109.067 20.496C109.44 20.7733 109.926 20.912 110.523 20.912C111.078 20.912 111.515 20.7893 111.835 20.544C112.155 20.2987 112.315 19.9893 112.315 19.616C112.315 19.232 112.144 18.9493 111.803 18.768C111.462 18.576 110.934 18.3893 110.219 18.208C109.568 18.0373 109.035 17.8667 108.619 17.696C108.214 17.5147 107.862 17.2533 107.563 16.912C107.275 16.56 107.131 16.1013 107.131 15.536C107.131 15.088 107.264 14.6773 107.531 14.304C107.798 13.9307 108.176 13.6373 108.667 13.424C109.158 13.2 109.718 13.088 110.347 13.088C111.318 13.088 112.102 13.3333 112.699 13.824C113.296 14.3147 113.616 14.9867 113.659 15.84H112.203C112.171 15.3813 111.984 15.0133 111.643 14.736C111.312 14.4587 110.864 14.32 110.299 14.32C109.776 14.32 109.36 14.432 109.051 14.656C108.742 14.88 108.587 15.1733 108.587 15.536C108.587 15.824 108.678 16.064 108.859 16.256C109.051 16.4373 109.286 16.5867 109.563 16.704C109.851 16.8107 110.246 16.9333 110.747 17.072C111.376 17.2427 111.888 17.4133 112.283 17.584C112.678 17.744 113.014 17.9893 113.291 18.32C113.579 18.6507 113.728 19.0827 113.739 19.616C113.739 20.096 113.606 20.528 113.339 20.912C113.072 21.296 112.694 21.6 112.203 21.824C111.723 22.0373 111.168 22.144 110.539 22.144Z" fill="black"/>
<path d="M14.75 28.3333V5" stroke="black" stroke-width="2" stroke-linecap="round" stroke-linejoin="round"/>
<path d="M6 18.125L14.75 28.3333L23.5 18.125" stroke="black" stroke-width="2" stroke-linecap="round" stroke-linejoin="round"/>
</svg>
