<svg width="50" height="44" viewBox="0 0 50 44" fill="none" xmlns="http://www.w3.org/2000/svg">
<path d="M34.375 3.25C34.375 2.4212 34.7042 1.62634 35.2903 1.04029C35.8763 0.45424 36.6712 0.125 37.5 0.125H43.75C44.5788 0.125 45.3737 0.45424 45.9597 1.04029C46.5458 1.62634 46.875 2.4212 46.875 3.25V40.75H48.4375C48.8519 40.75 49.2493 40.9146 49.5424 41.2076C49.8354 41.5007 50 41.8981 50 42.3125C50 42.7269 49.8354 43.1243 49.5424 43.4174C49.2493 43.7104 48.8519 43.875 48.4375 43.875H1.5625C1.1481 43.875 0.750671 43.7104 0.457646 43.4174C0.16462 43.1243 0 42.7269 0 42.3125C0 41.8981 0.16462 41.5007 0.457646 41.2076C0.750671 40.9146 1.1481 40.75 1.5625 40.75H3.125V31.375C3.125 30.5462 3.45424 29.7513 4.04029 29.1653C4.62634 28.5792 5.4212 28.25 6.25 28.25H12.5C13.3288 28.25 14.1237 28.5792 14.7097 29.1653C15.2958 29.7513 15.625 30.5462 15.625 31.375V40.75H18.75V18.875C18.75 18.0462 19.0792 17.2513 19.6653 16.6653C20.2513 16.0792 21.0462 15.75 21.875 15.75H28.125C28.9538 15.75 29.7487 16.0792 30.3347 16.6653C30.9208 17.2513 31.25 18.0462 31.25 18.875V40.75H34.375V3.25ZM37.5 40.75H43.75V3.25H37.5V40.75ZM28.125 40.75V18.875H21.875V40.75H28.125ZM12.5 40.75V31.375H6.25V40.75H12.5Z" fill="#487C99"/>
</svg>
